<?xml version="1.0" encoding="UTF-8" standalone="no"?>
<svg
   width="67.725998"
   height="40"
   viewBox="0 0 67.725998 40"
   fill="none"
   version="1.1"
   id="svg8"
   xmlns="http://www.w3.org/2000/svg"
   xmlns:svg="http://www.w3.org/2000/svg">
  <defs
     id="defs8" />
  <path
     d="M 32.4563,9.15838 C 38.1199,7.30171 40.2199,7.16654 43.0072,7.16654 H 54.2021 V 3.03239 C 54.2021,1.36445 52.8403,0 51.1755,0 H 17.3083 C 15.6435,0 14.2817,1.367 14.2817,3.03239 V 13.8766 c 0.3971,0.3927 0.7026,0.8849 0.9215,1.3568 3.2658,-1.1885 12.124,-4.3943 17.2531,-6.07757 z"
     fill="currentColor"
     id="path1" />
  <path
     d="m 53.9883,10.9028 c -0.644,0 -2.6066,0 -4.6302,0.5458 -4.6353,1.242 -6.0989,2.8717 -7.3869,4.3101 -1.1353,1.2701 -2.2095,2.4688 -4.8797,3.1013 -0.5498,0.1275 -1.0894,0.1938 -1.5985,0.1938 -2.6778,0 -4.0346,-1.7317 -4.4902,-2.4764 l -0.1324,-0.2142 -0.9647,-0.5713 h 1.9142 l 0.1247,0.204 c 0.3615,0.5841 1.428,1.946 3.5484,1.946 0.4251,0 0.8782,-0.0562 1.344,-0.1658 2.3316,-0.5484 3.248,-1.5736 4.3094,-2.757 1.3924,-1.5557 2.9706,-3.318 7.9266,-4.6467 2.1662,-0.58153 4.2382,-0.58153 4.9178,-0.58153 h 13.0506 c 0,0 -0.2139,-1.30069 -8.484,-1.30069 h -14.112 c -3.5942,0 -5.1826,-0.17342 -11.5768,1.92552 -6.3967,2.099 -18.4672,6.5188 -18.4672,6.5188 0,0 -0.387,-1.6578 -1.2142,-2.2648 -0.8273,-0.607 -1.3237,-0.4973 -0.6618,0.3877 0.6618,0.885 -0.3284,2.7059 -2.3139,3.7567 -1.9854201,1.0482 -2.4996001,0.987 -3.3268701,1.7036 0,0 -1.27273,0.3214 -3.65273,0.2041 -2.38000296,-0.1199 -3.00872896,-0.2194 -3.21236566,-0.0842 -0.2061813,0.1377 1.23963566,1.0737 3.39818566,1.3976 1.54,0.2295 2.37236,0.2933 2.84836,0.4846 3.04945,1.0278 4.4087201,4.736 13.8473201,4.736 1.5196,0 2.9934,-0.1046 4.4392,-0.2856 -0.5752,0.8875 -1.3236,2.0658 -2.0847,3.3205 -0.1527,0.0026 -0.3055,0.0153 -0.4582,0.0153 -3.1182,0 -5.6636,-0.5559 -7.7254,-1.3619 v 8.0235 c 0,1.668 1.3618,3.0324 3.0265,3.0324 h 33.8647 c 1.6648,0 3.0266,-1.3644 3.0266,-3.0324 V 19.4083 c -3.7418,1.6705 -8.4102,3.7465 -11.3298,5.0242 0.4861,1.2778 1.2625,3.5068 1.5196,5.3176 0.3844,2.7059 0.1069,5.5776 -0.9927,3.3129 -0.9495,-1.9485 -3.8131,-5.8557 -4.592,-6.9064 -3.1615,1.2956 -7.7026,3.0298 -12.4218,3.7745 -0.947,1.1554 -1.9397,2.3209 -2.8637,3.3334 -3.248,3.5475 -3.8971,3.0604 -3.8971,3.0604 0.1604,-0.1632 0.3411,-0.3545 0.532,-0.5636 0.0713,-0.0765 0.1477,-0.1658 0.2215,-0.2474 0.1298,-0.1428 0.2571,-0.2856 0.3971,-0.4438 0.0967,-0.1096 0.1985,-0.2295 0.2978,-0.3443 0.1247,-0.1453 0.2494,-0.2882 0.3793,-0.4437 0.1171,-0.1377 0.2341,-0.278 0.3538,-0.4183 0.1196,-0.1428 0.2393,-0.2856 0.3614,-0.4336 0.1324,-0.1581 0.2597,-0.3162 0.392,-0.4794 0.112,-0.1352 0.2215,-0.2729 0.3335,-0.4132 0.1425,-0.176 0.2825,-0.3519 0.4251,-0.5305 0.0967,-0.1224 0.1934,-0.2448 0.2876,-0.3672 0.1502,-0.1913 0.3004,-0.3826 0.448,-0.5713 0.0815,-0.1046 0.1553,-0.204 0.2342,-0.3086 0.1553,-0.204 0.3131,-0.4106 0.4607,-0.6095 0.2138,-0.2908 0.4226,-0.5739 0.616,-0.8416 0.7408,-1.0304 1.4866,-2.0276 2.0949,-2.8284 0.6542,-0.862 1.1506,-1.4996 1.3008,-1.6909 l 2.0974,-0.5789 c 0,0 -0.5167,0.6937 -1.3185,1.7393 5.9436,-1.7113 11.4011,-5.1135 16.856,-10.2627 3.5,-3.3053 8.6418,-3.3053 10.7902,-3.3053 h 9.9043 c 0.1349,-0.1581 0.252,-0.3162 0.3386,-0.4718 0.2291,-0.3978 0.3029,-0.7294 0.2978,-1.0074 H 53.9832 Z M 35.7144,12.099 c 1.4128,-0.5229 2.8739,-0.0893 3.2659,0.9716 0.3716,0.9998 -0.3488,2.1883 -1.6113,2.7621 0.6516,-0.4285 0.9978,-1.0763 0.7967,-1.6169 -0.2494,-0.681 -1.26,-0.9335 -2.2578,-0.5611 -0.9978,0.3672 -1.6011,1.2191 -1.3491,1.9026 0.0535,0.1453 0.1476,0.2677 0.2647,0.3698 -0.4454,-0.2015 -0.7941,-0.5254 -0.9545,-0.9615 -0.392,-1.061 0.4378,-2.3438 1.848,-2.8666 z"
     fill="currentColor"
     id="path8" />
</svg>
