<?xml version="1.0" encoding="UTF-8" ?>
<svg version="1.1" width="320" height="240" xmlns="http://www.w3.org/2000/svg" shape-rendering="crispEdges">
<rect x="100" y="0" width="20" height="20" fill="#051D29" />
<rect x="120" y="0" width="20" height="20" fill="#051D29" />
<rect x="140" y="0" width="20" height="20" fill="#051D29" />
<rect x="160" y="0" width="20" height="20" fill="#051D29" />
<rect x="180" y="0" width="20" height="20" fill="#051D29" />
<rect x="200" y="0" width="20" height="20" fill="#051D29" />
<rect x="40" y="20" width="20" height="20" fill="#051D29" />
<rect x="60" y="20" width="20" height="20" fill="#051D29" />
<rect x="80" y="20" width="20" height="20" fill="#051D29" />
<rect x="100" y="20" width="20" height="20" fill="#7FD4FA" />
<rect x="120" y="20" width="20" height="20" fill="#7FD4FA" />
<rect x="140" y="20" width="20" height="20" fill="#7FD4FA" />
<rect x="160" y="20" width="20" height="20" fill="#7FD4FA" />
<rect x="180" y="20" width="20" height="20" fill="#7FD4FA" />
<rect x="200" y="20" width="20" height="20" fill="#7FD4FA" />
<rect x="220" y="20" width="20" height="20" fill="#051D29" />
<rect x="240" y="20" width="20" height="20" fill="#051D29" />
<rect x="260" y="20" width="20" height="20" fill="#051D29" />
<rect x="20" y="40" width="20" height="20" fill="#051D29" />
<rect x="40" y="40" width="20" height="20" fill="#7FD4FA" />
<rect x="60" y="40" width="20" height="20" fill="#7FD4FA" />
<rect x="80" y="40" width="20" height="20" fill="#7FD4FA" />
<rect x="100" y="40" width="20" height="20" fill="#7FD4FA" />
<rect x="120" y="40" width="20" height="20" fill="#7FD4FA" />
<rect x="140" y="40" width="20" height="20" fill="#7FD4FA" />
<rect x="160" y="40" width="20" height="20" fill="#7FD4FA" />
<rect x="180" y="40" width="20" height="20" fill="#7FD4FA" />
<rect x="200" y="40" width="20" height="20" fill="#7FD4FA" />
<rect x="220" y="40" width="20" height="20" fill="#7FD4FA" />
<rect x="240" y="40" width="20" height="20" fill="#7FD4FA" />
<rect x="260" y="40" width="20" height="20" fill="#7FD4FA" />
<rect x="280" y="40" width="20" height="20" fill="#051D29" />
<rect x="0" y="60" width="20" height="20" fill="#051D29" />
<rect x="20" y="60" width="20" height="20" fill="#7FD4FA" />
<rect x="40" y="60" width="20" height="20" fill="#7FD4FA" />
<rect x="60" y="60" width="20" height="20" fill="#7FD4FA" />
<rect x="80" y="60" width="20" height="20" fill="#7FD4FA" />
<rect x="100" y="60" width="20" height="20" fill="#1EA2E4" />
<rect x="120" y="60" width="20" height="20" fill="#1EA2E4" />
<rect x="140" y="60" width="20" height="20" fill="#1EA2E4" />
<rect x="160" y="60" width="20" height="20" fill="#1EA2E4" />
<rect x="180" y="60" width="20" height="20" fill="#1EA2E4" />
<rect x="200" y="60" width="20" height="20" fill="#1EA2E4" />
<rect x="220" y="60" width="20" height="20" fill="#7FD4FA" />
<rect x="240" y="60" width="20" height="20" fill="#7FD4FA" />
<rect x="260" y="60" width="20" height="20" fill="#7FD4FA" />
<rect x="280" y="60" width="20" height="20" fill="#7FD4FA" />
<rect x="300" y="60" width="20" height="20" fill="#051D29" />
<rect x="0" y="80" width="20" height="20" fill="#051D29" />
<rect x="20" y="80" width="20" height="20" fill="#7FD4FA" />
<rect x="40" y="80" width="20" height="20" fill="#7FD4FA" />
<rect x="60" y="80" width="20" height="20" fill="#1EA2E4" />
<rect x="80" y="80" width="20" height="20" fill="#1EA2E4" />
<rect x="100" y="80" width="20" height="20" fill="#1EA2E4" />
<rect x="120" y="80" width="20" height="20" fill="#1EA2E4" />
<rect x="140" y="80" width="20" height="20" fill="#1EA2E4" />
<rect x="160" y="80" width="20" height="20" fill="#1EA2E4" />
<rect x="180" y="80" width="20" height="20" fill="#1EA2E4" />
<rect x="200" y="80" width="20" height="20" fill="#1EA2E4" />
<rect x="220" y="80" width="20" height="20" fill="#1EA2E4" />
<rect x="240" y="80" width="20" height="20" fill="#1EA2E4" />
<rect x="260" y="80" width="20" height="20" fill="#7FD4FA" />
<rect x="280" y="80" width="20" height="20" fill="#7FD4FA" />
<rect x="300" y="80" width="20" height="20" fill="#051D29" />
<rect x="0" y="100" width="20" height="20" fill="#051D29" />
<rect x="20" y="100" width="20" height="20" fill="#7FD4FA" />
<rect x="40" y="100" width="20" height="20" fill="#7FD4FA" />
<rect x="60" y="100" width="20" height="20" fill="#7FD4FA" />
<rect x="80" y="100" width="20" height="20" fill="#7FD4FA" />
<rect x="100" y="100" width="20" height="20" fill="#1EA2E4" />
<rect x="120" y="100" width="20" height="20" fill="#1EA2E4" />
<rect x="140" y="100" width="20" height="20" fill="#1EA2E4" />
<rect x="160" y="100" width="20" height="20" fill="#1EA2E4" />
<rect x="180" y="100" width="20" height="20" fill="#1EA2E4" />
<rect x="200" y="100" width="20" height="20" fill="#1EA2E4" />
<rect x="220" y="100" width="20" height="20" fill="#7FD4FA" />
<rect x="240" y="100" width="20" height="20" fill="#7FD4FA" />
<rect x="260" y="100" width="20" height="20" fill="#7FD4FA" />
<rect x="280" y="100" width="20" height="20" fill="#7FD4FA" />
<rect x="300" y="100" width="20" height="20" fill="#051D29" />
<rect x="0" y="120" width="20" height="20" fill="#051D29" />
<rect x="20" y="120" width="20" height="20" fill="#051D29" />
<rect x="40" y="120" width="20" height="20" fill="#7FD4FA" />
<rect x="60" y="120" width="20" height="20" fill="#7FD4FA" />
<rect x="80" y="120" width="20" height="20" fill="#7FD4FA" />
<rect x="100" y="120" width="20" height="20" fill="#7FD4FA" />
<rect x="120" y="120" width="20" height="20" fill="#7FD4FA" />
<rect x="140" y="120" width="20" height="20" fill="#7FD4FA" />
<rect x="160" y="120" width="20" height="20" fill="#7FD4FA" />
<rect x="180" y="120" width="20" height="20" fill="#7FD4FA" />
<rect x="200" y="120" width="20" height="20" fill="#7FD4FA" />
<rect x="220" y="120" width="20" height="20" fill="#7FD4FA" />
<rect x="240" y="120" width="20" height="20" fill="#7FD4FA" />
<rect x="260" y="120" width="20" height="20" fill="#7FD4FA" />
<rect x="280" y="120" width="20" height="20" fill="#051D29" />
<rect x="300" y="120" width="20" height="20" fill="#051D29" />
<rect x="0" y="140" width="20" height="20" fill="#051D29" />
<rect x="20" y="140" width="20" height="20" fill="#2EB8ED" />
<rect x="40" y="140" width="20" height="20" fill="#051D29" />
<rect x="60" y="140" width="20" height="20" fill="#051D29" />
<rect x="80" y="140" width="20" height="20" fill="#051D29" />
<rect x="100" y="140" width="20" height="20" fill="#7FD4FA" />
<rect x="120" y="140" width="20" height="20" fill="#7FD4FA" />
<rect x="140" y="140" width="20" height="20" fill="#7FD4FA" />
<rect x="160" y="140" width="20" height="20" fill="#7FD4FA" />
<rect x="180" y="140" width="20" height="20" fill="#7FD4FA" />
<rect x="200" y="140" width="20" height="20" fill="#7FD4FA" />
<rect x="220" y="140" width="20" height="20" fill="#051D29" />
<rect x="240" y="140" width="20" height="20" fill="#051D29" />
<rect x="260" y="140" width="20" height="20" fill="#051D29" />
<rect x="280" y="140" width="20" height="20" fill="#1EA2E4" />
<rect x="300" y="140" width="20" height="20" fill="#051D29" />
<rect x="0" y="160" width="20" height="20" fill="#051D29" />
<rect x="20" y="160" width="20" height="20" fill="#2EB8ED" />
<rect x="40" y="160" width="20" height="20" fill="#2EB8ED" />
<rect x="60" y="160" width="20" height="20" fill="#2EB8ED" />
<rect x="80" y="160" width="20" height="20" fill="#2EB8ED" />
<rect x="100" y="160" width="20" height="20" fill="#051D29" />
<rect x="120" y="160" width="20" height="20" fill="#051D29" />
<rect x="140" y="160" width="20" height="20" fill="#051D29" />
<rect x="160" y="160" width="20" height="20" fill="#051D29" />
<rect x="180" y="160" width="20" height="20" fill="#051D29" />
<rect x="200" y="160" width="20" height="20" fill="#051D29" />
<rect x="220" y="160" width="20" height="20" fill="#1EA2E4" />
<rect x="240" y="160" width="20" height="20" fill="#1EA2E4" />
<rect x="260" y="160" width="20" height="20" fill="#1EA2E4" />
<rect x="280" y="160" width="20" height="20" fill="#1EA2E4" />
<rect x="300" y="160" width="20" height="20" fill="#051D29" />
<rect x="20" y="180" width="20" height="20" fill="#051D29" />
<rect x="40" y="180" width="20" height="20" fill="#2EB8ED" />
<rect x="60" y="180" width="20" height="20" fill="#2EB8ED" />
<rect x="80" y="180" width="20" height="20" fill="#2EB8ED" />
<rect x="100" y="180" width="20" height="20" fill="#2EB8ED" />
<rect x="120" y="180" width="20" height="20" fill="#2EB8ED" />
<rect x="140" y="180" width="20" height="20" fill="#2EB8ED" />
<rect x="160" y="180" width="20" height="20" fill="#1EA2E4" />
<rect x="180" y="180" width="20" height="20" fill="#1EA2E4" />
<rect x="200" y="180" width="20" height="20" fill="#1EA2E4" />
<rect x="220" y="180" width="20" height="20" fill="#1EA2E4" />
<rect x="240" y="180" width="20" height="20" fill="#1EA2E4" />
<rect x="260" y="180" width="20" height="20" fill="#1EA2E4" />
<rect x="280" y="180" width="20" height="20" fill="#051D29" />
<rect x="40" y="200" width="20" height="20" fill="#051D29" />
<rect x="60" y="200" width="20" height="20" fill="#051D29" />
<rect x="80" y="200" width="20" height="20" fill="#051D29" />
<rect x="100" y="200" width="20" height="20" fill="#2EB8ED" />
<rect x="120" y="200" width="20" height="20" fill="#2EB8ED" />
<rect x="140" y="200" width="20" height="20" fill="#2EB8ED" />
<rect x="160" y="200" width="20" height="20" fill="#1EA2E4" />
<rect x="180" y="200" width="20" height="20" fill="#1EA2E4" />
<rect x="200" y="200" width="20" height="20" fill="#1EA2E4" />
<rect x="220" y="200" width="20" height="20" fill="#051D29" />
<rect x="240" y="200" width="20" height="20" fill="#051D29" />
<rect x="260" y="200" width="20" height="20" fill="#051D29" />
<rect x="100" y="220" width="20" height="20" fill="#051D29" />
<rect x="120" y="220" width="20" height="20" fill="#051D29" />
<rect x="140" y="220" width="20" height="20" fill="#051D29" />
<rect x="160" y="220" width="20" height="20" fill="#051D29" />
<rect x="180" y="220" width="20" height="20" fill="#051D29" />
<rect x="200" y="220" width="20" height="20" fill="#051D29" />
</svg>